# xmcd CD database file
#
# Track frame offsets:
#	150
#	12162
#	25487
#	39022
#	50857
#	64615
#	83187
#	94872
#	109482
#	120315
#	133140
#	145225
#
# Disc length: 2099 seconds
#
# Revision: 0
# Processed by: cddbd v1.5.2PL0 Copyright (c) Steve Scherf et al.
# Submitted via: CDex 1.51
#
DISCID=a208310c
DTITLE=Joe Quijano y El Conjuncto Cachana - Volvi A Cataña
DYEAR=1900
DGENRE=Salsa
TTITLE0=Teca Teca
TTITLE1=Llego la Hora
TTITLE2=El Dengue del Mosquito
TTITLE3=She Loves you
TTITLE4=Burutungu
TTITLE5=Volvi a Cataño
TTITLE6=A Bayamon
TTITLE7=Efectivamente
TTITLE8=Loca Por El Gengue
TTITLE9=World's fair Mambo
TTITLE10=Con el Bimbi me voy
TTITLE11=A'ca Mija
EXTD=
EXTT0=
EXTT1=
EXTT2=
EXTT3=
EXTT4=
EXTT5=
EXTT6=
EXTT7=
EXTT8=
EXTT9=
EXTT10=
EXTT11=
PLAYORDER=
